<?xml version="1.0" encoding="UTF-8" standalone="no"?>
<svg
   xmlns:dc="http://purl.org/dc/elements/1.1/"
   xmlns:cc="http://creativecommons.org/ns#"
   xmlns:rdf="http://www.w3.org/1999/02/22-rdf-syntax-ns#"
   xmlns:svg="http://www.w3.org/2000/svg"
   xmlns="http://www.w3.org/2000/svg"
   xmlns:sodipodi="http://sodipodi.sourceforge.net/DTD/sodipodi-0.dtd"
   xmlns:inkscape="http://www.inkscape.org/namespaces/inkscape"
   enable-background="new 0 0 256 256"
   height="256px"
   id="Layer_1"
   version="1.1"
   viewBox="0 0 256 256"
   width="256px"
   xml:space="preserve"
   sodipodi:docname="OK-2.svg"
   inkscape:export-filename="C:\Users\luiza\Google Drive\MonteGrappa\Projetos-Python\pacotesMG\icones\OK-2.png"
   inkscape:export-xdpi="27"
   inkscape:export-ydpi="27"
   inkscape:version="0.92.3 (2405546, 2018-03-11)"><metadata
     id="metadata90"><rdf:RDF><cc:Work
         rdf:about=""><dc:format>image/svg+xml</dc:format><dc:type
           rdf:resource="http://purl.org/dc/dcmitype/StillImage" /></cc:Work></rdf:RDF></metadata><defs
     id="defs88" /><sodipodi:namedview
     pagecolor="#ffffff"
     bordercolor="#666666"
     borderopacity="1"
     objecttolerance="10"
     gridtolerance="10"
     guidetolerance="10"
     inkscape:pageopacity="0"
     inkscape:pageshadow="2"
     inkscape:window-width="1366"
     inkscape:window-height="705"
     id="namedview86"
     showgrid="false"
     inkscape:zoom="0.921875"
     inkscape:cx="128"
     inkscape:cy="128"
     inkscape:window-x="-8"
     inkscape:window-y="892"
     inkscape:window-maximized="1"
     inkscape:current-layer="Layer_1" /><path
     d="M109.083,183.336c-1.521,0-3-0.542-4.166-1.541l-37.83-32.426c-2.683-2.301-2.994-6.341-0.694-9.025  c2.3-2.682,6.341-2.992,9.025-0.693l32.732,28.058l71.542-91.981c2.171-2.789,6.188-3.295,8.981-1.122  c2.789,2.17,3.292,6.191,1.122,8.981l-75.663,97.279c-1.075,1.382-2.667,2.263-4.41,2.438  C109.511,183.325,109.297,183.336,109.083,183.336z M256,128C256,57.42,198.58,0,128,0S0,57.42,0,128c0,70.58,57.42,128,128,128  S256,198.58,256,128z M243.2,128c0,63.521-51.679,115.2-115.2,115.2c-63.522,0-115.2-51.679-115.2-115.2  C12.8,64.478,64.478,12.8,128,12.8C191.521,12.8,243.2,64.478,243.2,128z"
     id="path83"
     style="fill:#097045;fill-opacity:1" /></svg>