<?xml version='1.0' encoding='utf-8'?>
<svg xmlns="http://www.w3.org/2000/svg" enable-background="new 0 0 612 792" version="1.1" viewBox="0 0 612 792"> <style type="text/css">.st0{fill:#F4C3C3;} .st1{fill:#F4B0B0;} .st2{fill:none;stroke:#F4B0B0;stroke-width:5;stroke-miterlimit:10;} .st3{fill:#F29999;} .st4{fill:none;stroke:#1D1D1B;stroke-miterlimit:10;} .st5{fill:#432918;} .st6{fill:#FFFFFF;} .st7{fill:#EF8686;}</style> <path class="st0" d="m426.3 416.5c0-57.7-53.8-104.5-120.3-104.5s-120.3 46.8-120.3 104.5c0 31.8 16.4 60.4 42.3 79.5v17.8c0 9.8 6 17.7 13.5 17.7h16c2.9 0 5.6-1.2 7.8-3.3 1.4 7.8 6.7 13.7 13.1 13.7h16c7.4 0 13.5-7.9 13.5-17.7v-3.2c5.6-0.1 11.2-0.5 16.6-1.2 2.4 5.7 6.6 9.4 11.3 9.4h6.3c2 7.4 6.8 12.7 12.4 12.7h16c7.4 0 13.5-9.3 13.5-20.7v-25c25.8-19.2 42.3-47.8 42.3-79.7z"/> <path class="st1" d="m424.2 394.8c4.3-3.3 9.7-5.1 15-3.1 2.8 1 5.2 3.3 6.1 6.2 1.2 3.7-1.7 8.2-5.8 5.5-5.4-3.6-1.8-10.9 2-14.2 4.1-3.6 9.4-4.9 14.7-4.4 3.2 0.3 3.2-4.7 0-5-9.3-0.8-19.6 3.8-23.3 12.8-2.9 7.1 0.8 17.5 9.8 16.6 9.1-0.9 9.5-11.5 4.8-17.4-6.5-8.1-18.3-7.1-25.9-1.3-2.4 1.9 0.1 6.3 2.6 4.3z"/> <polygon class="st1" points="184.1 347 195.5 380.2 218.8 352.3"/> <ellipse class="st0" cx="306" cy="416.5" rx="120.3" ry="104.5"/> <path class="st1" d="m228 513.8c0 9.8 6 17.7 13.5 17.7h16c6.8 0 12.3-6.6 13.3-15.1-15.9-4.2-30.4-11.3-42.8-20.4v17.8z"/> <path class="st1" d="m335.7 529.2h16c7.4 0 13.5-9.3 13.5-20.7v-1c-12.4 6.1-26.1 10.3-40.7 12.3 2.3 5.6 6.5 9.4 11.2 9.4z"/> <ellipse class="st1" cx="210.2" cy="426.7" rx="33.8" ry="30.7"/> <path class="st2" d="m206.5 463.9c6.3 4.8 15.8 4.5 21.9-0.5"/> <circle class="st3" cx="189" cy="426.7" r="5.7"/> <circle class="st3" cx="217.4" cy="426.7" r="5.7"/> <polygon class="st1" points="303.8 358.9 269 362.5 290.8 391.4"/> <path class="st4" d="m262 335"/> <path class="st0" d="m340.9 521.2c0 11.4 6 20.7 13.5 20.7h16c7.4 0 13.5-9.3 13.5-20.7v-25c-12.4 9.2-27 16.2-42.9 20.4v4.6z"/> <path class="st0" d="m264.9 514.7v9.4c0 9.8 6 17.7 13.5 17.7h16c7.4 0 13.5-7.9 13.5-17.7v-3.1h-1.9c-14.4 0-28.3-2.2-41.1-6.3z"/> <circle class="st5" cx="199.5" cy="388.2" r="7.8"/> <circle class="st6" cx="196.6" cy="388.1" r="2.9"/> <circle class="st5" cx="249.5" cy="393" r="7.8"/> <circle class="st6" cx="246.6" cy="392.9" r="2.9"/> <path class="st7" d="m267.1 331.7c-1.7-0.1-3.2-1.1-3.8-2.8-0.8-2.2 0.3-4.6 2.5-5.4 1.6-0.6 38.7-14 80.1-1 2.2 0.7 3.5 3.1 2.8 5.3s-3.1 3.5-5.3 2.8c-38.6-12.1-74.3 0.7-74.6 0.9-0.6 0.1-1.2 0.2-1.7 0.2z"/> <path class="st3" d="m264 330c0.4-0.5 1-0.9 1.7-1.2 1.6-0.6 38.5-14.5 80.1-2.1 1 0.3 1.5 1.5 2.3 2 1.9-2.3 0.8-6.6-2.2-7.4-41.6-12.4-78.5 1.5-80.1 2.1-2.2 0.8-3.3 3.3-2.4 5.5 0.1 0.4 0.4 0.8 0.6 1.1z"/> </svg>